<?xml version="1.0" encoding="utf-8" standalone="no"?>
<!DOCTYPE svg PUBLIC "-//W3C//DTD SVG 1.1//EN"
  "http://www.w3.org/Graphics/SVG/1.1/DTD/svg11.dtd">
<svg xmlns:xlink="http://www.w3.org/1999/xlink" width="631.08pt" height="360.709969pt" viewBox="0 0 631.08 360.709969" xmlns="http://www.w3.org/2000/svg" version="1.1">
 <metadata>
  <rdf:RDF xmlns:dc="http://purl.org/dc/elements/1.1/" xmlns:cc="http://creativecommons.org/ns#" xmlns:rdf="http://www.w3.org/1999/02/22-rdf-syntax-ns#">
   <cc:Work>
    <dc:type rdf:resource="http://purl.org/dc/dcmitype/StillImage"/>
    <dc:date>2026-07-24T04:19:54.663632</dc:date>
    <dc:format>image/svg+xml</dc:format>
    <dc:creator>
     <cc:Agent>
      <dc:title>Matplotlib v3.10.8, https://matplotlib.org/</dc:title>
     </cc:Agent>
    </dc:creator>
   </cc:Work>
  </rdf:RDF>
 </metadata>
 <defs>
  <style type="text/css">*{stroke-linejoin: round; stroke-linecap: butt}</style>
 </defs>
 <g id="figure_1">
  <g id="patch_1">
   <path d="M 0 360.709969 
L 631.08 360.709969 
L 631.08 0 
L 0 0 
z
" style="fill: #ffffff"/>
  </g>
  <g id="axes_1">
   <g id="patch_2">
    <path d="M 23.985 333.312769 
L 607.095 333.312769 
L 607.095 62.673169 
L 23.985 62.673169 
z
" clip-path="url(#pded2b47115)" style="fill: #fbfcfe; stroke-dasharray: 3.7,1.6; stroke-dashoffset: 0; stroke: #9aa5b1; stroke-linejoin: miter"/>
   </g>
   <g id="patch_3">
    <path d="M 52.09704 153.350833 
L 180.01296 153.350833 
Q 181.24056 153.350833 181.24056 152.278993 
L 181.24056 102.224065 
Q 181.24056 101.152225 180.01296 101.152225 
L 52.09704 101.152225 
Q 50.86944 101.152225 50.86944 102.224065 
L 50.86944 152.278993 
Q 50.86944 153.350833 52.09704 153.350833 
z
" clip-path="url(#pded2b47115)" style="fill: #e8f1fb; stroke: #243447; stroke-width: 1.1; stroke-linejoin: miter"/>
   </g>
   <g id="patch_4">
    <path d="M 208.61604 153.350833 
L 361.08396 153.350833 
Q 362.31156 153.350833 362.31156 152.278993 
L 362.31156 102.224065 
Q 362.31156 101.152225 361.08396 101.152225 
L 208.61604 101.152225 
Q 207.38844 101.152225 207.38844 102.224065 
L 207.38844 152.278993 
Q 207.38844 153.350833 208.61604 153.350833 
z
" clip-path="url(#pded2b47115)" style="fill: #e8f1fb; stroke: #243447; stroke-width: 1.1; stroke-linejoin: miter"/>
   </g>
   <g id="patch_5">
    <path d="M 389.68704 153.350833 
L 520.67196 153.350833 
Q 521.89956 153.350833 521.89956 152.278993 
L 521.89956 102.224065 
Q 521.89956 101.152225 520.67196 101.152225 
L 389.68704 101.152225 
Q 388.45944 101.152225 388.45944 102.224065 
L 388.45944 152.278993 
Q 388.45944 153.350833 389.68704 153.350833 
z
" clip-path="url(#pded2b47115)" style="fill: #edf6f0; stroke: #243447; stroke-width: 1.1; stroke-linejoin: miter"/>
   </g>
   <g id="patch_6">
    <path d="M 552.34404 153.350833 
L 597.39696 153.350833 
Q 598.62456 153.350833 598.62456 152.278993 
L 598.62456 102.224065 
Q 598.62456 101.152225 597.39696 101.152225 
L 552.34404 101.152225 
Q 551.11644 101.152225 551.11644 102.224065 
L 551.11644 152.278993 
Q 551.11644 153.350833 552.34404 153.350833 
z
" clip-path="url(#pded2b47115)" style="fill: #fff4e5; stroke: #243447; stroke-width: 1.1; stroke-linejoin: miter"/>
   </g>
   <g id="patch_7">
    <path d="M 182.503046 126.983569 
Q 192.778791 126.983569 201.936501 126.983569 
" clip-path="url(#pded2b47115)" style="fill: none; stroke: #52606d; stroke-linecap: round"/>
    <path d="M 197.136501 124.583569 
L 201.936501 126.983569 
L 197.136501 129.383569 
z
" clip-path="url(#pded2b47115)" style="fill: #52606d; stroke: #52606d; stroke-linecap: round"/>
   </g>
   <g id="patch_8">
    <path d="M 366.644919 126.983569 
Q 375.384744 126.983569 383.006535 126.983569 
" clip-path="url(#pded2b47115)" style="fill: none; stroke: #52606d; stroke-linecap: round"/>
    <path d="M 378.206535 124.583569 
L 383.006535 126.983569 
L 378.206535 129.383569 
z
" clip-path="url(#pded2b47115)" style="fill: #52606d; stroke: #52606d; stroke-linecap: round"/>
   </g>
   <g id="patch_9">
    <path d="M 526.231046 126.983569 
Q 536.506791 126.983569 545.664501 126.983569 
" clip-path="url(#pded2b47115)" style="fill: none; stroke: #52606d; stroke-linecap: round"/>
    <path d="M 540.864501 124.583569 
L 545.664501 126.983569 
L 540.864501 129.383569 
z
" clip-path="url(#pded2b47115)" style="fill: #52606d; stroke: #52606d; stroke-linecap: round"/>
   </g>
   <g id="patch_10">
    <path d="M 70.51104 275.004673 
L 210.70296 275.004673 
Q 211.93056 275.004673 211.93056 273.932833 
L 211.93056 221.198305 
Q 211.93056 220.126465 210.70296 220.126465 
L 70.51104 220.126465 
Q 69.28344 220.126465 69.28344 221.198305 
L 69.28344 273.932833 
Q 69.28344 275.004673 70.51104 275.004673 
z
" clip-path="url(#pded2b47115)" style="fill: #f4effa; stroke: #243447; stroke-width: 1.1; stroke-linejoin: miter"/>
   </g>
   <g id="patch_11">
    <path d="M 245.44404 275.004673 
L 385.63596 275.004673 
Q 386.86356 275.004673 386.86356 273.932833 
L 386.86356 221.198305 
Q 386.86356 220.126465 385.63596 220.126465 
L 245.44404 220.126465 
Q 244.21644 220.126465 244.21644 221.198305 
L 244.21644 273.932833 
Q 244.21644 275.004673 245.44404 275.004673 
z
" clip-path="url(#pded2b47115)" style="fill: #f4effa; stroke: #243447; stroke-width: 1.1; stroke-linejoin: miter"/>
   </g>
   <g id="patch_12">
    <path d="M 420.37704 275.004673 
L 560.56896 275.004673 
Q 561.79656 275.004673 561.79656 273.932833 
L 561.79656 221.198305 
Q 561.79656 220.126465 560.56896 220.126465 
L 420.37704 220.126465 
Q 419.14944 220.126465 419.14944 221.198305 
L 419.14944 273.932833 
Q 419.14944 275.004673 420.37704 275.004673 
z
" clip-path="url(#pded2b47115)" style="fill: #f4effa; stroke: #243447; stroke-width: 1.1; stroke-linejoin: miter"/>
   </g>
   <g id="patch_13">
    <path d="M 571.809742 156.139592 
Q 536.509797 185.933252 502.064244 215.005793 
" clip-path="url(#pded2b47115)" style="fill: none; stroke: #7b8794; stroke-linecap: round"/>
    <path d="M 507.280339 213.743906 
L 502.064244 215.005793 
L 504.184392 210.075785 
z
" clip-path="url(#pded2b47115)" style="fill: #7b8794; stroke: #7b8794; stroke-linecap: round"/>
   </g>
   <g id="patch_14">
    <path d="M 283.018977 155.657709 
Q 214.263883 185.93438 146.532008 215.76047 
" clip-path="url(#pded2b47115)" style="fill: none; stroke: #7b8794; stroke-linecap: round"/>
    <path d="M 151.892171 216.022486 
L 146.532008 215.76047 
L 149.957718 211.629549 
z
" clip-path="url(#pded2b47115)" style="fill: #7b8794; stroke: #7b8794; stroke-linecap: round"/>
   </g>
   <g id="patch_15">
    <path d="M 291.723781 156.714437 
Q 303.26485 185.93692 314.395233 214.119529 
" clip-path="url(#pded2b47115)" style="fill: none; stroke: #7b8794; stroke-linecap: round"/>
    <path d="M 314.864276 208.773503 
L 314.395233 214.119529 
L 310.399837 210.536679 
z
" clip-path="url(#pded2b47115)" style="fill: #7b8794; stroke: #7b8794; stroke-linecap: round"/>
   </g>
   <g id="patch_16">
    <path d="M 436.514308 156.380534 
Q 461.317753 185.93507 485.402467 214.633202 
" clip-path="url(#pded2b47115)" style="fill: none; stroke: #7b8794; stroke-linecap: round"/>
    <path d="M 484.155153 209.413604 
L 485.402467 214.633202 
L 480.478399 212.499294 
z
" clip-path="url(#pded2b47115)" style="fill: #7b8794; stroke: #7b8794; stroke-linecap: round"/>
   </g>
   <g id="text_1">
    <!-- WORLDLINE ENGINE EXECUTION CORE -->
    <g style="fill: #52606d" transform="translate(39.33 78.750769) scale(0.09 -0.09)">
     <defs>
      <path id="DejaVuSans-Bold-57" d="M 191 4666 
L 1344 4666 
L 2150 1275 
L 2950 4666 
L 4109 4666 
L 4909 1275 
L 5716 4666 
L 6859 4666 
L 5759 0 
L 4372 0 
L 3525 3547 
L 2688 0 
L 1300 0 
L 191 4666 
z
" transform="scale(0.015625)"/>
      <path id="DejaVuSans-Bold-4f" d="M 2719 3878 
Q 2169 3878 1866 3472 
Q 1563 3066 1563 2328 
Q 1563 1594 1866 1187 
Q 2169 781 2719 781 
Q 3272 781 3575 1187 
Q 3878 1594 3878 2328 
Q 3878 3066 3575 3472 
Q 3272 3878 2719 3878 
z
M 2719 4750 
Q 3844 4750 4481 4106 
Q 5119 3463 5119 2328 
Q 5119 1197 4481 553 
Q 3844 -91 2719 -91 
Q 1597 -91 958 553 
Q 319 1197 319 2328 
Q 319 3463 958 4106 
Q 1597 4750 2719 4750 
z
" transform="scale(0.015625)"/>
      <path id="DejaVuSans-Bold-52" d="M 2297 2597 
Q 2675 2597 2839 2737 
Q 3003 2878 3003 3200 
Q 3003 3519 2839 3656 
Q 2675 3794 2297 3794 
L 1791 3794 
L 1791 2597 
L 2297 2597 
z
M 1791 1766 
L 1791 0 
L 588 0 
L 588 4666 
L 2425 4666 
Q 3347 4666 3776 4356 
Q 4206 4047 4206 3378 
Q 4206 2916 3982 2619 
Q 3759 2322 3309 2181 
Q 3556 2125 3751 1926 
Q 3947 1728 4147 1325 
L 4800 0 
L 3519 0 
L 2950 1159 
Q 2778 1509 2601 1637 
Q 2425 1766 2131 1766 
L 1791 1766 
z
" transform="scale(0.015625)"/>
      <path id="DejaVuSans-Bold-4c" d="M 588 4666 
L 1791 4666 
L 1791 909 
L 3903 909 
L 3903 0 
L 588 0 
L 588 4666 
z
" transform="scale(0.015625)"/>
      <path id="DejaVuSans-Bold-44" d="M 1791 3756 
L 1791 909 
L 2222 909 
Q 2959 909 3348 1275 
Q 3738 1641 3738 2338 
Q 3738 3031 3350 3393 
Q 2963 3756 2222 3756 
L 1791 3756 
z
M 588 4666 
L 1856 4666 
Q 2919 4666 3439 4514 
Q 3959 4363 4331 4000 
Q 4659 3684 4818 3271 
Q 4978 2859 4978 2338 
Q 4978 1809 4818 1395 
Q 4659 981 4331 666 
Q 3956 303 3431 151 
Q 2906 0 1856 0 
L 588 0 
L 588 4666 
z
" transform="scale(0.015625)"/>
      <path id="DejaVuSans-Bold-49" d="M 588 4666 
L 1791 4666 
L 1791 0 
L 588 0 
L 588 4666 
z
" transform="scale(0.015625)"/>
      <path id="DejaVuSans-Bold-4e" d="M 588 4666 
L 1931 4666 
L 3628 1466 
L 3628 4666 
L 4769 4666 
L 4769 0 
L 3425 0 
L 1728 3200 
L 1728 0 
L 588 0 
L 588 4666 
z
" transform="scale(0.015625)"/>
      <path id="DejaVuSans-Bold-45" d="M 588 4666 
L 3834 4666 
L 3834 3756 
L 1791 3756 
L 1791 2888 
L 3713 2888 
L 3713 1978 
L 1791 1978 
L 1791 909 
L 3903 909 
L 3903 0 
L 588 0 
L 588 4666 
z
" transform="scale(0.015625)"/>
      <path id="DejaVuSans-Bold-20" transform="scale(0.015625)"/>
      <path id="DejaVuSans-Bold-47" d="M 4781 347 
Q 4331 128 3847 18 
Q 3363 -91 2847 -91 
Q 1681 -91 1000 561 
Q 319 1213 319 2328 
Q 319 3456 1012 4103 
Q 1706 4750 2913 4750 
Q 3378 4750 3804 4662 
Q 4231 4575 4609 4403 
L 4609 3438 
Q 4219 3659 3833 3768 
Q 3447 3878 3059 3878 
Q 2341 3878 1952 3476 
Q 1563 3075 1563 2328 
Q 1563 1588 1938 1184 
Q 2313 781 3003 781 
Q 3191 781 3352 804 
Q 3513 828 3641 878 
L 3641 1784 
L 2906 1784 
L 2906 2591 
L 4781 2591 
L 4781 347 
z
" transform="scale(0.015625)"/>
      <path id="DejaVuSans-Bold-58" d="M 3188 2381 
L 4806 0 
L 3553 0 
L 2463 1594 
L 1381 0 
L 122 0 
L 1741 2381 
L 184 4666 
L 1441 4666 
L 2463 3163 
L 3481 4666 
L 4744 4666 
L 3188 2381 
z
" transform="scale(0.015625)"/>
      <path id="DejaVuSans-Bold-43" d="M 4288 256 
Q 3956 84 3597 -3 
Q 3238 -91 2847 -91 
Q 1681 -91 1000 561 
Q 319 1213 319 2328 
Q 319 3447 1000 4098 
Q 1681 4750 2847 4750 
Q 3238 4750 3597 4662 
Q 3956 4575 4288 4403 
L 4288 3438 
Q 3953 3666 3628 3772 
Q 3303 3878 2944 3878 
Q 2300 3878 1931 3465 
Q 1563 3053 1563 2328 
Q 1563 1606 1931 1193 
Q 2300 781 2944 781 
Q 3303 781 3628 887 
Q 3953 994 4288 1222 
L 4288 256 
z
" transform="scale(0.015625)"/>
      <path id="DejaVuSans-Bold-55" d="M 588 4666 
L 1791 4666 
L 1791 1869 
Q 1791 1291 1980 1042 
Q 2169 794 2597 794 
Q 3028 794 3217 1042 
Q 3406 1291 3406 1869 
L 3406 4666 
L 4609 4666 
L 4609 1869 
Q 4609 878 4112 393 
Q 3616 -91 2597 -91 
Q 1581 -91 1084 393 
Q 588 878 588 1869 
L 588 4666 
z
" transform="scale(0.015625)"/>
      <path id="DejaVuSans-Bold-54" d="M 31 4666 
L 4331 4666 
L 4331 3756 
L 2784 3756 
L 2784 0 
L 1581 0 
L 1581 3756 
L 31 3756 
L 31 4666 
z
" transform="scale(0.015625)"/>
     </defs>
     <use xlink:href="#DejaVuSans-Bold-57"/>
     <use xlink:href="#DejaVuSans-Bold-4f" transform="translate(110.302734 0)"/>
     <use xlink:href="#DejaVuSans-Bold-52" transform="translate(195.3125 0)"/>
     <use xlink:href="#DejaVuSans-Bold-4c" transform="translate(272.314453 0)"/>
     <use xlink:href="#DejaVuSans-Bold-44" transform="translate(336.035156 0)"/>
     <use xlink:href="#DejaVuSans-Bold-4c" transform="translate(419.042969 0)"/>
     <use xlink:href="#DejaVuSans-Bold-49" transform="translate(482.763672 0)"/>
     <use xlink:href="#DejaVuSans-Bold-4e" transform="translate(519.970703 0)"/>
     <use xlink:href="#DejaVuSans-Bold-45" transform="translate(603.662109 0)"/>
     <use xlink:href="#DejaVuSans-Bold-20" transform="translate(671.972656 0)"/>
     <use xlink:href="#DejaVuSans-Bold-45" transform="translate(706.787109 0)"/>
     <use xlink:href="#DejaVuSans-Bold-4e" transform="translate(775.097656 0)"/>
     <use xlink:href="#DejaVuSans-Bold-47" transform="translate(858.789062 0)"/>
     <use xlink:href="#DejaVuSans-Bold-49" transform="translate(940.869141 0)"/>
     <use xlink:href="#DejaVuSans-Bold-4e" transform="translate(978.076172 0)"/>
     <use xlink:href="#DejaVuSans-Bold-45" transform="translate(1061.767578 0)"/>
     <use xlink:href="#DejaVuSans-Bold-20" transform="translate(1130.078125 0)"/>
     <use xlink:href="#DejaVuSans-Bold-45" transform="translate(1164.892578 0)"/>
     <use xlink:href="#DejaVuSans-Bold-58" transform="translate(1233.203125 0)"/>
     <use xlink:href="#DejaVuSans-Bold-45" transform="translate(1310.302734 0)"/>
     <use xlink:href="#DejaVuSans-Bold-43" transform="translate(1378.613281 0)"/>
     <use xlink:href="#DejaVuSans-Bold-55" transform="translate(1452.001953 0)"/>
     <use xlink:href="#DejaVuSans-Bold-54" transform="translate(1533.203125 0)"/>
     <use xlink:href="#DejaVuSans-Bold-49" transform="translate(1601.416016 0)"/>
     <use xlink:href="#DejaVuSans-Bold-4f" transform="translate(1638.623047 0)"/>
     <use xlink:href="#DejaVuSans-Bold-4e" transform="translate(1723.632812 0)"/>
     <use xlink:href="#DejaVuSans-Bold-20" transform="translate(1807.324219 0)"/>
     <use xlink:href="#DejaVuSans-Bold-43" transform="translate(1842.138672 0)"/>
     <use xlink:href="#DejaVuSans-Bold-4f" transform="translate(1915.527344 0)"/>
     <use xlink:href="#DejaVuSans-Bold-52" transform="translate(2000.537109 0)"/>
     <use xlink:href="#DejaVuSans-Bold-45" transform="translate(2077.539062 0)"/>
    </g>
   </g>
   <g id="text_2">
    <!-- Scheduler -->
    <g style="fill: #17202a" transform="translate(87.83 122.883168) scale(0.1 -0.1)">
     <defs>
      <path id="DejaVuSans-Bold-53" d="M 3834 4519 
L 3834 3531 
Q 3450 3703 3084 3790 
Q 2719 3878 2394 3878 
Q 1963 3878 1756 3759 
Q 1550 3641 1550 3391 
Q 1550 3203 1689 3098 
Q 1828 2994 2194 2919 
L 2706 2816 
Q 3484 2659 3812 2340 
Q 4141 2022 4141 1434 
Q 4141 663 3683 286 
Q 3225 -91 2284 -91 
Q 1841 -91 1394 -6 
Q 947 78 500 244 
L 500 1259 
Q 947 1022 1364 901 
Q 1781 781 2169 781 
Q 2563 781 2772 912 
Q 2981 1044 2981 1288 
Q 2981 1506 2839 1625 
Q 2697 1744 2272 1838 
L 1806 1941 
Q 1106 2091 782 2419 
Q 459 2747 459 3303 
Q 459 4000 909 4375 
Q 1359 4750 2203 4750 
Q 2588 4750 2994 4692 
Q 3400 4634 3834 4519 
z
" transform="scale(0.015625)"/>
      <path id="DejaVuSans-Bold-63" d="M 3366 3391 
L 3366 2478 
Q 3138 2634 2908 2709 
Q 2678 2784 2431 2784 
Q 1963 2784 1702 2511 
Q 1441 2238 1441 1747 
Q 1441 1256 1702 982 
Q 1963 709 2431 709 
Q 2694 709 2930 787 
Q 3166 866 3366 1019 
L 3366 103 
Q 3103 6 2833 -42 
Q 2563 -91 2291 -91 
Q 1344 -91 809 395 
Q 275 881 275 1747 
Q 275 2613 809 3098 
Q 1344 3584 2291 3584 
Q 2566 3584 2833 3536 
Q 3100 3488 3366 3391 
z
" transform="scale(0.015625)"/>
      <path id="DejaVuSans-Bold-68" d="M 4056 2131 
L 4056 0 
L 2931 0 
L 2931 347 
L 2931 1625 
Q 2931 2084 2911 2256 
Q 2891 2428 2841 2509 
Q 2775 2619 2662 2680 
Q 2550 2741 2406 2741 
Q 2056 2741 1856 2470 
Q 1656 2200 1656 1722 
L 1656 0 
L 538 0 
L 538 4863 
L 1656 4863 
L 1656 2988 
Q 1909 3294 2193 3439 
Q 2478 3584 2822 3584 
Q 3428 3584 3742 3212 
Q 4056 2841 4056 2131 
z
" transform="scale(0.015625)"/>
      <path id="DejaVuSans-Bold-65" d="M 4031 1759 
L 4031 1441 
L 1416 1441 
Q 1456 1047 1700 850 
Q 1944 653 2381 653 
Q 2734 653 3104 758 
Q 3475 863 3866 1075 
L 3866 213 
Q 3469 63 3072 -14 
Q 2675 -91 2278 -91 
Q 1328 -91 801 392 
Q 275 875 275 1747 
Q 275 2603 792 3093 
Q 1309 3584 2216 3584 
Q 3041 3584 3536 3087 
Q 4031 2591 4031 1759 
z
M 2881 2131 
Q 2881 2450 2695 2645 
Q 2509 2841 2209 2841 
Q 1884 2841 1681 2658 
Q 1478 2475 1428 2131 
L 2881 2131 
z
" transform="scale(0.015625)"/>
      <path id="DejaVuSans-Bold-64" d="M 2919 2988 
L 2919 4863 
L 4044 4863 
L 4044 0 
L 2919 0 
L 2919 506 
Q 2688 197 2409 53 
Q 2131 -91 1766 -91 
Q 1119 -91 703 423 
Q 288 938 288 1747 
Q 288 2556 703 3070 
Q 1119 3584 1766 3584 
Q 2128 3584 2408 3439 
Q 2688 3294 2919 2988 
z
M 2181 722 
Q 2541 722 2730 984 
Q 2919 1247 2919 1747 
Q 2919 2247 2730 2509 
Q 2541 2772 2181 2772 
Q 1825 2772 1636 2509 
Q 1447 2247 1447 1747 
Q 1447 1247 1636 984 
Q 1825 722 2181 722 
z
" transform="scale(0.015625)"/>
      <path id="DejaVuSans-Bold-75" d="M 500 1363 
L 500 3500 
L 1625 3500 
L 1625 3150 
Q 1625 2866 1622 2436 
Q 1619 2006 1619 1863 
Q 1619 1441 1641 1255 
Q 1663 1069 1716 984 
Q 1784 875 1895 815 
Q 2006 756 2150 756 
Q 2500 756 2700 1025 
Q 2900 1294 2900 1772 
L 2900 3500 
L 4019 3500 
L 4019 0 
L 2900 0 
L 2900 506 
Q 2647 200 2364 54 
Q 2081 -91 1741 -91 
Q 1134 -91 817 281 
Q 500 653 500 1363 
z
" transform="scale(0.015625)"/>
      <path id="DejaVuSans-Bold-6c" d="M 538 4863 
L 1656 4863 
L 1656 0 
L 538 0 
L 538 4863 
z
" transform="scale(0.015625)"/>
      <path id="DejaVuSans-Bold-72" d="M 3138 2547 
Q 2991 2616 2845 2648 
Q 2700 2681 2553 2681 
Q 2122 2681 1889 2404 
Q 1656 2128 1656 1613 
L 1656 0 
L 538 0 
L 538 3500 
L 1656 3500 
L 1656 2925 
Q 1872 3269 2151 3426 
Q 2431 3584 2822 3584 
Q 2878 3584 2943 3579 
Q 3009 3575 3134 3559 
L 3138 2547 
z
" transform="scale(0.015625)"/>
     </defs>
     <use xlink:href="#DejaVuSans-Bold-53"/>
     <use xlink:href="#DejaVuSans-Bold-63" transform="translate(72.021484 0)"/>
     <use xlink:href="#DejaVuSans-Bold-68" transform="translate(131.298828 0)"/>
     <use xlink:href="#DejaVuSans-Bold-65" transform="translate(202.490234 0)"/>
     <use xlink:href="#DejaVuSans-Bold-64" transform="translate(270.3125 0)"/>
     <use xlink:href="#DejaVuSans-Bold-75" transform="translate(341.894531 0)"/>
     <use xlink:href="#DejaVuSans-Bold-6c" transform="translate(413.085938 0)"/>
     <use xlink:href="#DejaVuSans-Bold-65" transform="translate(447.363281 0)"/>
     <use xlink:href="#DejaVuSans-Bold-72" transform="translate(515.185547 0)"/>
    </g>
   </g>
   <g id="text_3">
    <!-- turn selection -->
    <g style="fill: #34495e" transform="translate(87.905938 134.949825) scale(0.082 -0.082)">
     <defs>
      <path id="DejaVuSans-74" d="M 1172 4494 
L 1172 3500 
L 2356 3500 
L 2356 3053 
L 1172 3053 
L 1172 1153 
Q 1172 725 1289 603 
Q 1406 481 1766 481 
L 2356 481 
L 2356 0 
L 1766 0 
Q 1100 0 847 248 
Q 594 497 594 1153 
L 594 3053 
L 172 3053 
L 172 3500 
L 594 3500 
L 594 4494 
L 1172 4494 
z
" transform="scale(0.015625)"/>
      <path id="DejaVuSans-75" d="M 544 1381 
L 544 3500 
L 1119 3500 
L 1119 1403 
Q 1119 906 1312 657 
Q 1506 409 1894 409 
Q 2359 409 2629 706 
Q 2900 1003 2900 1516 
L 2900 3500 
L 3475 3500 
L 3475 0 
L 2900 0 
L 2900 538 
Q 2691 219 2414 64 
Q 2138 -91 1772 -91 
Q 1169 -91 856 284 
Q 544 659 544 1381 
z
M 1991 3584 
L 1991 3584 
z
" transform="scale(0.015625)"/>
      <path id="DejaVuSans-72" d="M 2631 2963 
Q 2534 3019 2420 3045 
Q 2306 3072 2169 3072 
Q 1681 3072 1420 2755 
Q 1159 2438 1159 1844 
L 1159 0 
L 581 0 
L 581 3500 
L 1159 3500 
L 1159 2956 
Q 1341 3275 1631 3429 
Q 1922 3584 2338 3584 
Q 2397 3584 2469 3576 
Q 2541 3569 2628 3553 
L 2631 2963 
z
" transform="scale(0.015625)"/>
      <path id="DejaVuSans-6e" d="M 3513 2113 
L 3513 0 
L 2938 0 
L 2938 2094 
Q 2938 2591 2744 2837 
Q 2550 3084 2163 3084 
Q 1697 3084 1428 2787 
Q 1159 2491 1159 1978 
L 1159 0 
L 581 0 
L 581 3500 
L 1159 3500 
L 1159 2956 
Q 1366 3272 1645 3428 
Q 1925 3584 2291 3584 
Q 2894 3584 3203 3211 
Q 3513 2838 3513 2113 
z
" transform="scale(0.015625)"/>
      <path id="DejaVuSans-20" transform="scale(0.015625)"/>
      <path id="DejaVuSans-73" d="M 2834 3397 
L 2834 2853 
Q 2591 2978 2328 3040 
Q 2066 3103 1784 3103 
Q 1356 3103 1142 2972 
Q 928 2841 928 2578 
Q 928 2378 1081 2264 
Q 1234 2150 1697 2047 
L 1894 2003 
Q 2506 1872 2764 1633 
Q 3022 1394 3022 966 
Q 3022 478 2636 193 
Q 2250 -91 1575 -91 
Q 1294 -91 989 -36 
Q 684 19 347 128 
L 347 722 
Q 666 556 975 473 
Q 1284 391 1588 391 
Q 1994 391 2212 530 
Q 2431 669 2431 922 
Q 2431 1156 2273 1281 
Q 2116 1406 1581 1522 
L 1381 1569 
Q 847 1681 609 1914 
Q 372 2147 372 2553 
Q 372 3047 722 3315 
Q 1072 3584 1716 3584 
Q 2034 3584 2315 3537 
Q 2597 3491 2834 3397 
z
" transform="scale(0.015625)"/>
      <path id="DejaVuSans-65" d="M 3597 1894 
L 3597 1613 
L 953 1613 
Q 991 1019 1311 708 
Q 1631 397 2203 397 
Q 2534 397 2845 478 
Q 3156 559 3463 722 
L 3463 178 
Q 3153 47 2828 -22 
Q 2503 -91 2169 -91 
Q 1331 -91 842 396 
Q 353 884 353 1716 
Q 353 2575 817 3079 
Q 1281 3584 2069 3584 
Q 2775 3584 3186 3129 
Q 3597 2675 3597 1894 
z
M 3022 2063 
Q 3016 2534 2758 2815 
Q 2500 3097 2075 3097 
Q 1594 3097 1305 2825 
Q 1016 2553 972 2059 
L 3022 2063 
z
" transform="scale(0.015625)"/>
      <path id="DejaVuSans-6c" d="M 603 4863 
L 1178 4863 
L 1178 0 
L 603 0 
L 603 4863 
z
" transform="scale(0.015625)"/>
      <path id="DejaVuSans-63" d="M 3122 3366 
L 3122 2828 
Q 2878 2963 2633 3030 
Q 2388 3097 2138 3097 
Q 1578 3097 1268 2742 
Q 959 2388 959 1747 
Q 959 1106 1268 751 
Q 1578 397 2138 397 
Q 2388 397 2633 464 
Q 2878 531 3122 666 
L 3122 134 
Q 2881 22 2623 -34 
Q 2366 -91 2075 -91 
Q 1284 -91 818 406 
Q 353 903 353 1747 
Q 353 2603 823 3093 
Q 1294 3584 2113 3584 
Q 2378 3584 2631 3529 
Q 2884 3475 3122 3366 
z
" transform="scale(0.015625)"/>
      <path id="DejaVuSans-69" d="M 603 3500 
L 1178 3500 
L 1178 0 
L 603 0 
L 603 3500 
z
M 603 4863 
L 1178 4863 
L 1178 4134 
L 603 4134 
L 603 4863 
z
" transform="scale(0.015625)"/>
      <path id="DejaVuSans-6f" d="M 1959 3097 
Q 1497 3097 1228 2736 
Q 959 2375 959 1747 
Q 959 1119 1226 758 
Q 1494 397 1959 397 
Q 2419 397 2687 759 
Q 2956 1122 2956 1747 
Q 2956 2369 2687 2733 
Q 2419 3097 1959 3097 
z
M 1959 3584 
Q 2709 3584 3137 3096 
Q 3566 2609 3566 1747 
Q 3566 888 3137 398 
Q 2709 -91 1959 -91 
Q 1206 -91 779 398 
Q 353 888 353 1747 
Q 353 2609 779 3096 
Q 1206 3584 1959 3584 
z
" transform="scale(0.015625)"/>
     </defs>
     <use xlink:href="#DejaVuSans-74"/>
     <use xlink:href="#DejaVuSans-75" transform="translate(39.208984 0)"/>
     <use xlink:href="#DejaVuSans-72" transform="translate(102.587891 0)"/>
     <use xlink:href="#DejaVuSans-6e" transform="translate(141.951172 0)"/>
     <use xlink:href="#DejaVuSans-20" transform="translate(205.330078 0)"/>
     <use xlink:href="#DejaVuSans-73" transform="translate(237.117188 0)"/>
     <use xlink:href="#DejaVuSans-65" transform="translate(289.216797 0)"/>
     <use xlink:href="#DejaVuSans-6c" transform="translate(350.740234 0)"/>
     <use xlink:href="#DejaVuSans-65" transform="translate(378.523438 0)"/>
     <use xlink:href="#DejaVuSans-63" transform="translate(440.046875 0)"/>
     <use xlink:href="#DejaVuSans-74" transform="translate(495.027344 0)"/>
     <use xlink:href="#DejaVuSans-69" transform="translate(534.236328 0)"/>
     <use xlink:href="#DejaVuSans-6f" transform="translate(562.019531 0)"/>
     <use xlink:href="#DejaVuSans-6e" transform="translate(623.201172 0)"/>
    </g>
    <!-- activation policy -->
    <g style="fill: #34495e" transform="translate(82.375422 144.443567) scale(0.082 -0.082)">
     <defs>
      <path id="DejaVuSans-61" d="M 2194 1759 
Q 1497 1759 1228 1600 
Q 959 1441 959 1056 
Q 959 750 1161 570 
Q 1363 391 1709 391 
Q 2188 391 2477 730 
Q 2766 1069 2766 1631 
L 2766 1759 
L 2194 1759 
z
M 3341 1997 
L 3341 0 
L 2766 0 
L 2766 531 
Q 2569 213 2275 61 
Q 1981 -91 1556 -91 
Q 1019 -91 701 211 
Q 384 513 384 1019 
Q 384 1609 779 1909 
Q 1175 2209 1959 2209 
L 2766 2209 
L 2766 2266 
Q 2766 2663 2505 2880 
Q 2244 3097 1772 3097 
Q 1472 3097 1187 3025 
Q 903 2953 641 2809 
L 641 3341 
Q 956 3463 1253 3523 
Q 1550 3584 1831 3584 
Q 2591 3584 2966 3190 
Q 3341 2797 3341 1997 
z
" transform="scale(0.015625)"/>
      <path id="DejaVuSans-76" d="M 191 3500 
L 800 3500 
L 1894 563 
L 2988 3500 
L 3597 3500 
L 2284 0 
L 1503 0 
L 191 3500 
z
" transform="scale(0.015625)"/>
      <path id="DejaVuSans-70" d="M 1159 525 
L 1159 -1331 
L 581 -1331 
L 581 3500 
L 1159 3500 
L 1159 2969 
Q 1341 3281 1617 3432 
Q 1894 3584 2278 3584 
Q 2916 3584 3314 3078 
Q 3713 2572 3713 1747 
Q 3713 922 3314 415 
Q 2916 -91 2278 -91 
Q 1894 -91 1617 61 
Q 1341 213 1159 525 
z
M 3116 1747 
Q 3116 2381 2855 2742 
Q 2594 3103 2138 3103 
Q 1681 3103 1420 2742 
Q 1159 2381 1159 1747 
Q 1159 1113 1420 752 
Q 1681 391 2138 391 
Q 2594 391 2855 752 
Q 3116 1113 3116 1747 
z
" transform="scale(0.015625)"/>
      <path id="DejaVuSans-79" d="M 2059 -325 
Q 1816 -950 1584 -1140 
Q 1353 -1331 966 -1331 
L 506 -1331 
L 506 -850 
L 844 -850 
Q 1081 -850 1212 -737 
Q 1344 -625 1503 -206 
L 1606 56 
L 191 3500 
L 800 3500 
L 1894 763 
L 2988 3500 
L 3597 3500 
L 2059 -325 
z
" transform="scale(0.015625)"/>
     </defs>
     <use xlink:href="#DejaVuSans-61"/>
     <use xlink:href="#DejaVuSans-63" transform="translate(61.279297 0)"/>
     <use xlink:href="#DejaVuSans-74" transform="translate(116.259766 0)"/>
     <use xlink:href="#DejaVuSans-69" transform="translate(155.46875 0)"/>
     <use xlink:href="#DejaVuSans-76" transform="translate(183.251953 0)"/>
     <use xlink:href="#DejaVuSans-61" transform="translate(242.431641 0)"/>
     <use xlink:href="#DejaVuSans-74" transform="translate(303.710938 0)"/>
     <use xlink:href="#DejaVuSans-69" transform="translate(342.919922 0)"/>
     <use xlink:href="#DejaVuSans-6f" transform="translate(370.703125 0)"/>
     <use xlink:href="#DejaVuSans-6e" transform="translate(431.884766 0)"/>
     <use xlink:href="#DejaVuSans-20" transform="translate(495.263672 0)"/>
     <use xlink:href="#DejaVuSans-70" transform="translate(527.050781 0)"/>
     <use xlink:href="#DejaVuSans-6f" transform="translate(590.527344 0)"/>
     <use xlink:href="#DejaVuSans-6c" transform="translate(651.708984 0)"/>
     <use xlink:href="#DejaVuSans-69" transform="translate(679.492188 0)"/>
     <use xlink:href="#DejaVuSans-63" transform="translate(707.275391 0)"/>
     <use xlink:href="#DejaVuSans-79" transform="translate(762.255859 0)"/>
    </g>
   </g>
   <g id="text_4">
    <!-- Simulation Runtime -->
    <g style="fill: #17202a" transform="translate(229.164063 122.883168) scale(0.1 -0.1)">
     <defs>
      <path id="DejaVuSans-Bold-69" d="M 538 3500 
L 1656 3500 
L 1656 0 
L 538 0 
L 538 3500 
z
M 538 4863 
L 1656 4863 
L 1656 3950 
L 538 3950 
L 538 4863 
z
" transform="scale(0.015625)"/>
      <path id="DejaVuSans-Bold-6d" d="M 3781 2919 
Q 3994 3244 4286 3414 
Q 4578 3584 4928 3584 
Q 5531 3584 5847 3212 
Q 6163 2841 6163 2131 
L 6163 0 
L 5038 0 
L 5038 1825 
Q 5041 1866 5042 1909 
Q 5044 1953 5044 2034 
Q 5044 2406 4934 2573 
Q 4825 2741 4581 2741 
Q 4263 2741 4089 2478 
Q 3916 2216 3909 1719 
L 3909 0 
L 2784 0 
L 2784 1825 
Q 2784 2406 2684 2573 
Q 2584 2741 2328 2741 
Q 2006 2741 1831 2477 
Q 1656 2213 1656 1722 
L 1656 0 
L 531 0 
L 531 3500 
L 1656 3500 
L 1656 2988 
Q 1863 3284 2130 3434 
Q 2397 3584 2719 3584 
Q 3081 3584 3359 3409 
Q 3638 3234 3781 2919 
z
" transform="scale(0.015625)"/>
      <path id="DejaVuSans-Bold-61" d="M 2106 1575 
Q 1756 1575 1579 1456 
Q 1403 1338 1403 1106 
Q 1403 894 1545 773 
Q 1688 653 1941 653 
Q 2256 653 2472 879 
Q 2688 1106 2688 1447 
L 2688 1575 
L 2106 1575 
z
M 3816 1997 
L 3816 0 
L 2688 0 
L 2688 519 
Q 2463 200 2181 54 
Q 1900 -91 1497 -91 
Q 953 -91 614 226 
Q 275 544 275 1050 
Q 275 1666 698 1953 
Q 1122 2241 2028 2241 
L 2688 2241 
L 2688 2328 
Q 2688 2594 2478 2717 
Q 2269 2841 1825 2841 
Q 1466 2841 1156 2769 
Q 847 2697 581 2553 
L 581 3406 
Q 941 3494 1303 3539 
Q 1666 3584 2028 3584 
Q 2975 3584 3395 3211 
Q 3816 2838 3816 1997 
z
" transform="scale(0.015625)"/>
      <path id="DejaVuSans-Bold-74" d="M 1759 4494 
L 1759 3500 
L 2913 3500 
L 2913 2700 
L 1759 2700 
L 1759 1216 
Q 1759 972 1856 886 
Q 1953 800 2241 800 
L 2816 800 
L 2816 0 
L 1856 0 
Q 1194 0 917 276 
Q 641 553 641 1216 
L 641 2700 
L 84 2700 
L 84 3500 
L 641 3500 
L 641 4494 
L 1759 4494 
z
" transform="scale(0.015625)"/>
      <path id="DejaVuSans-Bold-6f" d="M 2203 2784 
Q 1831 2784 1636 2517 
Q 1441 2250 1441 1747 
Q 1441 1244 1636 976 
Q 1831 709 2203 709 
Q 2569 709 2762 976 
Q 2956 1244 2956 1747 
Q 2956 2250 2762 2517 
Q 2569 2784 2203 2784 
z
M 2203 3584 
Q 3106 3584 3614 3096 
Q 4122 2609 4122 1747 
Q 4122 884 3614 396 
Q 3106 -91 2203 -91 
Q 1297 -91 786 396 
Q 275 884 275 1747 
Q 275 2609 786 3096 
Q 1297 3584 2203 3584 
z
" transform="scale(0.015625)"/>
      <path id="DejaVuSans-Bold-6e" d="M 4056 2131 
L 4056 0 
L 2931 0 
L 2931 347 
L 2931 1631 
Q 2931 2084 2911 2256 
Q 2891 2428 2841 2509 
Q 2775 2619 2662 2680 
Q 2550 2741 2406 2741 
Q 2056 2741 1856 2470 
Q 1656 2200 1656 1722 
L 1656 0 
L 538 0 
L 538 3500 
L 1656 3500 
L 1656 2988 
Q 1909 3294 2193 3439 
Q 2478 3584 2822 3584 
Q 3428 3584 3742 3212 
Q 4056 2841 4056 2131 
z
" transform="scale(0.015625)"/>
     </defs>
     <use xlink:href="#DejaVuSans-Bold-53"/>
     <use xlink:href="#DejaVuSans-Bold-69" transform="translate(72.021484 0)"/>
     <use xlink:href="#DejaVuSans-Bold-6d" transform="translate(106.298828 0)"/>
     <use xlink:href="#DejaVuSans-Bold-75" transform="translate(210.498047 0)"/>
     <use xlink:href="#DejaVuSans-Bold-6c" transform="translate(281.689453 0)"/>
     <use xlink:href="#DejaVuSans-Bold-61" transform="translate(315.966797 0)"/>
     <use xlink:href="#DejaVuSans-Bold-74" transform="translate(383.447266 0)"/>
     <use xlink:href="#DejaVuSans-Bold-69" transform="translate(431.25 0)"/>
     <use xlink:href="#DejaVuSans-Bold-6f" transform="translate(465.527344 0)"/>
     <use xlink:href="#DejaVuSans-Bold-6e" transform="translate(534.228516 0)"/>
     <use xlink:href="#DejaVuSans-Bold-20" transform="translate(605.419922 0)"/>
     <use xlink:href="#DejaVuSans-Bold-52" transform="translate(640.234375 0)"/>
     <use xlink:href="#DejaVuSans-Bold-75" transform="translate(717.236328 0)"/>
     <use xlink:href="#DejaVuSans-Bold-6e" transform="translate(788.427734 0)"/>
     <use xlink:href="#DejaVuSans-Bold-74" transform="translate(859.619141 0)"/>
     <use xlink:href="#DejaVuSans-Bold-69" transform="translate(907.421875 0)"/>
     <use xlink:href="#DejaVuSans-Bold-6d" transform="translate(941.699219 0)"/>
     <use xlink:href="#DejaVuSans-Bold-65" transform="translate(1045.898438 0)"/>
    </g>
   </g>
   <g id="text_5">
    <!-- snapshot | budget | overlay -->
    <g style="fill: #34495e" transform="translate(228.416703 134.853731) scale(0.082 -0.082)">
     <defs>
      <path id="DejaVuSans-68" d="M 3513 2113 
L 3513 0 
L 2938 0 
L 2938 2094 
Q 2938 2591 2744 2837 
Q 2550 3084 2163 3084 
Q 1697 3084 1428 2787 
Q 1159 2491 1159 1978 
L 1159 0 
L 581 0 
L 581 4863 
L 1159 4863 
L 1159 2956 
Q 1366 3272 1645 3428 
Q 1925 3584 2291 3584 
Q 2894 3584 3203 3211 
Q 3513 2838 3513 2113 
z
" transform="scale(0.015625)"/>
      <path id="DejaVuSans-7c" d="M 1344 4891 
L 1344 -1509 
L 813 -1509 
L 813 4891 
L 1344 4891 
z
" transform="scale(0.015625)"/>
      <path id="DejaVuSans-62" d="M 3116 1747 
Q 3116 2381 2855 2742 
Q 2594 3103 2138 3103 
Q 1681 3103 1420 2742 
Q 1159 2381 1159 1747 
Q 1159 1113 1420 752 
Q 1681 391 2138 391 
Q 2594 391 2855 752 
Q 3116 1113 3116 1747 
z
M 1159 2969 
Q 1341 3281 1617 3432 
Q 1894 3584 2278 3584 
Q 2916 3584 3314 3078 
Q 3713 2572 3713 1747 
Q 3713 922 3314 415 
Q 2916 -91 2278 -91 
Q 1894 -91 1617 61 
Q 1341 213 1159 525 
L 1159 0 
L 581 0 
L 581 4863 
L 1159 4863 
L 1159 2969 
z
" transform="scale(0.015625)"/>
      <path id="DejaVuSans-64" d="M 2906 2969 
L 2906 4863 
L 3481 4863 
L 3481 0 
L 2906 0 
L 2906 525 
Q 2725 213 2448 61 
Q 2172 -91 1784 -91 
Q 1150 -91 751 415 
Q 353 922 353 1747 
Q 353 2572 751 3078 
Q 1150 3584 1784 3584 
Q 2172 3584 2448 3432 
Q 2725 3281 2906 2969 
z
M 947 1747 
Q 947 1113 1208 752 
Q 1469 391 1925 391 
Q 2381 391 2643 752 
Q 2906 1113 2906 1747 
Q 2906 2381 2643 2742 
Q 2381 3103 1925 3103 
Q 1469 3103 1208 2742 
Q 947 2381 947 1747 
z
" transform="scale(0.015625)"/>
      <path id="DejaVuSans-67" d="M 2906 1791 
Q 2906 2416 2648 2759 
Q 2391 3103 1925 3103 
Q 1463 3103 1205 2759 
Q 947 2416 947 1791 
Q 947 1169 1205 825 
Q 1463 481 1925 481 
Q 2391 481 2648 825 
Q 2906 1169 2906 1791 
z
M 3481 434 
Q 3481 -459 3084 -895 
Q 2688 -1331 1869 -1331 
Q 1566 -1331 1297 -1286 
Q 1028 -1241 775 -1147 
L 775 -588 
Q 1028 -725 1275 -790 
Q 1522 -856 1778 -856 
Q 2344 -856 2625 -561 
Q 2906 -266 2906 331 
L 2906 616 
Q 2728 306 2450 153 
Q 2172 0 1784 0 
Q 1141 0 747 490 
Q 353 981 353 1791 
Q 353 2603 747 3093 
Q 1141 3584 1784 3584 
Q 2172 3584 2450 3431 
Q 2728 3278 2906 2969 
L 2906 3500 
L 3481 3500 
L 3481 434 
z
" transform="scale(0.015625)"/>
     </defs>
     <use xlink:href="#DejaVuSans-73"/>
     <use xlink:href="#DejaVuSans-6e" transform="translate(52.099609 0)"/>
     <use xlink:href="#DejaVuSans-61" transform="translate(115.478516 0)"/>
     <use xlink:href="#DejaVuSans-70" transform="translate(176.757812 0)"/>
     <use xlink:href="#DejaVuSans-73" transform="translate(240.234375 0)"/>
     <use xlink:href="#DejaVuSans-68" transform="translate(292.333984 0)"/>
     <use xlink:href="#DejaVuSans-6f" transform="translate(355.712891 0)"/>
     <use xlink:href="#DejaVuSans-74" transform="translate(416.894531 0)"/>
     <use xlink:href="#DejaVuSans-20" transform="translate(456.103516 0)"/>
     <use xlink:href="#DejaVuSans-7c" transform="translate(487.890625 0)"/>
     <use xlink:href="#DejaVuSans-20" transform="translate(521.582031 0)"/>
     <use xlink:href="#DejaVuSans-62" transform="translate(553.369141 0)"/>
     <use xlink:href="#DejaVuSans-75" transform="translate(616.845703 0)"/>
     <use xlink:href="#DejaVuSans-64" transform="translate(680.224609 0)"/>
     <use xlink:href="#DejaVuSans-67" transform="translate(743.701172 0)"/>
     <use xlink:href="#DejaVuSans-65" transform="translate(807.177734 0)"/>
     <use xlink:href="#DejaVuSans-74" transform="translate(868.701172 0)"/>
     <use xlink:href="#DejaVuSans-20" transform="translate(907.910156 0)"/>
     <use xlink:href="#DejaVuSans-7c" transform="translate(939.697266 0)"/>
     <use xlink:href="#DejaVuSans-20" transform="translate(973.388672 0)"/>
     <use xlink:href="#DejaVuSans-6f" transform="translate(1005.175781 0)"/>
     <use xlink:href="#DejaVuSans-76" transform="translate(1066.357422 0)"/>
     <use xlink:href="#DejaVuSans-65" transform="translate(1125.537109 0)"/>
     <use xlink:href="#DejaVuSans-72" transform="translate(1187.060547 0)"/>
     <use xlink:href="#DejaVuSans-6c" transform="translate(1228.173828 0)"/>
     <use xlink:href="#DejaVuSans-61" transform="translate(1255.957031 0)"/>
     <use xlink:href="#DejaVuSans-79" transform="translate(1317.236328 0)"/>
    </g>
    <!-- deterministic commit -->
    <g style="fill: #34495e" transform="translate(241.174109 144.575536) scale(0.082 -0.082)">
     <defs>
      <path id="DejaVuSans-6d" d="M 3328 2828 
Q 3544 3216 3844 3400 
Q 4144 3584 4550 3584 
Q 5097 3584 5394 3201 
Q 5691 2819 5691 2113 
L 5691 0 
L 5113 0 
L 5113 2094 
Q 5113 2597 4934 2840 
Q 4756 3084 4391 3084 
Q 3944 3084 3684 2787 
Q 3425 2491 3425 1978 
L 3425 0 
L 2847 0 
L 2847 2094 
Q 2847 2600 2669 2842 
Q 2491 3084 2119 3084 
Q 1678 3084 1418 2786 
Q 1159 2488 1159 1978 
L 1159 0 
L 581 0 
L 581 3500 
L 1159 3500 
L 1159 2956 
Q 1356 3278 1631 3431 
Q 1906 3584 2284 3584 
Q 2666 3584 2933 3390 
Q 3200 3197 3328 2828 
z
" transform="scale(0.015625)"/>
     </defs>
     <use xlink:href="#DejaVuSans-64"/>
     <use xlink:href="#DejaVuSans-65" transform="translate(63.476562 0)"/>
     <use xlink:href="#DejaVuSans-74" transform="translate(125 0)"/>
     <use xlink:href="#DejaVuSans-65" transform="translate(164.208984 0)"/>
     <use xlink:href="#DejaVuSans-72" transform="translate(225.732422 0)"/>
     <use xlink:href="#DejaVuSans-6d" transform="translate(265.095703 0)"/>
     <use xlink:href="#DejaVuSans-69" transform="translate(362.507812 0)"/>
     <use xlink:href="#DejaVuSans-6e" transform="translate(390.291016 0)"/>
     <use xlink:href="#DejaVuSans-69" transform="translate(453.669922 0)"/>
     <use xlink:href="#DejaVuSans-73" transform="translate(481.453125 0)"/>
     <use xlink:href="#DejaVuSans-74" transform="translate(533.552734 0)"/>
     <use xlink:href="#DejaVuSans-69" transform="translate(572.761719 0)"/>
     <use xlink:href="#DejaVuSans-63" transform="translate(600.544922 0)"/>
     <use xlink:href="#DejaVuSans-20" transform="translate(655.525391 0)"/>
     <use xlink:href="#DejaVuSans-63" transform="translate(687.3125 0)"/>
     <use xlink:href="#DejaVuSans-6f" transform="translate(742.292969 0)"/>
     <use xlink:href="#DejaVuSans-6d" transform="translate(803.474609 0)"/>
     <use xlink:href="#DejaVuSans-6d" transform="translate(900.886719 0)"/>
     <use xlink:href="#DejaVuSans-69" transform="translate(998.298828 0)"/>
     <use xlink:href="#DejaVuSans-74" transform="translate(1026.082031 0)"/>
    </g>
   </g>
   <g id="text_6">
    <!-- Controller -->
    <g style="fill: #17202a" transform="translate(426.939656 122.883168) scale(0.1 -0.1)">
     <use xlink:href="#DejaVuSans-Bold-43"/>
     <use xlink:href="#DejaVuSans-Bold-6f" transform="translate(73.388672 0)"/>
     <use xlink:href="#DejaVuSans-Bold-6e" transform="translate(142.089844 0)"/>
     <use xlink:href="#DejaVuSans-Bold-74" transform="translate(213.28125 0)"/>
     <use xlink:href="#DejaVuSans-Bold-72" transform="translate(261.083984 0)"/>
     <use xlink:href="#DejaVuSans-Bold-6f" transform="translate(310.400391 0)"/>
     <use xlink:href="#DejaVuSans-Bold-6c" transform="translate(379.101562 0)"/>
     <use xlink:href="#DejaVuSans-Bold-6c" transform="translate(413.378906 0)"/>
     <use xlink:href="#DejaVuSans-Bold-65" transform="translate(447.65625 0)"/>
     <use xlink:href="#DejaVuSans-Bold-72" transform="translate(515.478516 0)"/>
    </g>
   </g>
   <g id="text_7">
    <!-- Rule / Replay / LLM -->
    <g style="fill: #34495e" transform="translate(416.305734 134.949825) scale(0.082 -0.082)">
     <defs>
      <path id="DejaVuSans-52" d="M 2841 2188 
Q 3044 2119 3236 1894 
Q 3428 1669 3622 1275 
L 4263 0 
L 3584 0 
L 2988 1197 
Q 2756 1666 2539 1819 
Q 2322 1972 1947 1972 
L 1259 1972 
L 1259 0 
L 628 0 
L 628 4666 
L 2053 4666 
Q 2853 4666 3247 4331 
Q 3641 3997 3641 3322 
Q 3641 2881 3436 2590 
Q 3231 2300 2841 2188 
z
M 1259 4147 
L 1259 2491 
L 2053 2491 
Q 2509 2491 2742 2702 
Q 2975 2913 2975 3322 
Q 2975 3731 2742 3939 
Q 2509 4147 2053 4147 
L 1259 4147 
z
" transform="scale(0.015625)"/>
      <path id="DejaVuSans-2f" d="M 1625 4666 
L 2156 4666 
L 531 -594 
L 0 -594 
L 1625 4666 
z
" transform="scale(0.015625)"/>
      <path id="DejaVuSans-4c" d="M 628 4666 
L 1259 4666 
L 1259 531 
L 3531 531 
L 3531 0 
L 628 0 
L 628 4666 
z
" transform="scale(0.015625)"/>
      <path id="DejaVuSans-4d" d="M 628 4666 
L 1569 4666 
L 2759 1491 
L 3956 4666 
L 4897 4666 
L 4897 0 
L 4281 0 
L 4281 4097 
L 3078 897 
L 2444 897 
L 1241 4097 
L 1241 0 
L 628 0 
L 628 4666 
z
" transform="scale(0.015625)"/>
     </defs>
     <use xlink:href="#DejaVuSans-52"/>
     <use xlink:href="#DejaVuSans-75" transform="translate(64.982422 0)"/>
     <use xlink:href="#DejaVuSans-6c" transform="translate(128.361328 0)"/>
     <use xlink:href="#DejaVuSans-65" transform="translate(156.144531 0)"/>
     <use xlink:href="#DejaVuSans-20" transform="translate(217.667969 0)"/>
     <use xlink:href="#DejaVuSans-2f" transform="translate(249.455078 0)"/>
     <use xlink:href="#DejaVuSans-20" transform="translate(283.146484 0)"/>
     <use xlink:href="#DejaVuSans-52" transform="translate(314.933594 0)"/>
     <use xlink:href="#DejaVuSans-65" transform="translate(379.916016 0)"/>
     <use xlink:href="#DejaVuSans-70" transform="translate(441.439453 0)"/>
     <use xlink:href="#DejaVuSans-6c" transform="translate(504.916016 0)"/>
     <use xlink:href="#DejaVuSans-61" transform="translate(532.699219 0)"/>
     <use xlink:href="#DejaVuSans-79" transform="translate(593.978516 0)"/>
     <use xlink:href="#DejaVuSans-20" transform="translate(653.158203 0)"/>
     <use xlink:href="#DejaVuSans-2f" transform="translate(684.945312 0)"/>
     <use xlink:href="#DejaVuSans-20" transform="translate(718.636719 0)"/>
     <use xlink:href="#DejaVuSans-4c" transform="translate(750.423828 0)"/>
     <use xlink:href="#DejaVuSans-4c" transform="translate(806.136719 0)"/>
     <use xlink:href="#DejaVuSans-4d" transform="translate(861.849609 0)"/>
    </g>
    <!-- ActionIntent -->
    <g style="fill: #34495e" transform="translate(430.195125 144.443567) scale(0.082 -0.082)">
     <defs>
      <path id="DejaVuSans-41" d="M 2188 4044 
L 1331 1722 
L 3047 1722 
L 2188 4044 
z
M 1831 4666 
L 2547 4666 
L 4325 0 
L 3669 0 
L 3244 1197 
L 1141 1197 
L 716 0 
L 50 0 
L 1831 4666 
z
" transform="scale(0.015625)"/>
      <path id="DejaVuSans-49" d="M 628 4666 
L 1259 4666 
L 1259 0 
L 628 0 
L 628 4666 
z
" transform="scale(0.015625)"/>
     </defs>
     <use xlink:href="#DejaVuSans-41"/>
     <use xlink:href="#DejaVuSans-63" transform="translate(66.658203 0)"/>
     <use xlink:href="#DejaVuSans-74" transform="translate(121.638672 0)"/>
     <use xlink:href="#DejaVuSans-69" transform="translate(160.847656 0)"/>
     <use xlink:href="#DejaVuSans-6f" transform="translate(188.630859 0)"/>
     <use xlink:href="#DejaVuSans-6e" transform="translate(249.8125 0)"/>
     <use xlink:href="#DejaVuSans-49" transform="translate(313.191406 0)"/>
     <use xlink:href="#DejaVuSans-6e" transform="translate(342.683594 0)"/>
     <use xlink:href="#DejaVuSans-74" transform="translate(406.0625 0)"/>
     <use xlink:href="#DejaVuSans-65" transform="translate(445.271484 0)"/>
     <use xlink:href="#DejaVuSans-6e" transform="translate(506.794922 0)"/>
     <use xlink:href="#DejaVuSans-74" transform="translate(570.173828 0)"/>
    </g>
   </g>
   <g id="text_8">
    <!-- World -->
    <g style="fill: #17202a" transform="translate(558.343156 122.883168) scale(0.1 -0.1)">
     <use xlink:href="#DejaVuSans-Bold-57"/>
     <use xlink:href="#DejaVuSans-Bold-6f" transform="translate(106.677734 0)"/>
     <use xlink:href="#DejaVuSans-Bold-72" transform="translate(175.378906 0)"/>
     <use xlink:href="#DejaVuSans-Bold-6c" transform="translate(224.695312 0)"/>
     <use xlink:href="#DejaVuSans-Bold-64" transform="translate(258.972656 0)"/>
    </g>
   </g>
   <g id="text_9">
    <!-- validate -->
    <g style="fill: #34495e" transform="translate(558.407719 139.696696) scale(0.082 -0.082)">
     <use xlink:href="#DejaVuSans-76"/>
     <use xlink:href="#DejaVuSans-61" transform="translate(59.179688 0)"/>
     <use xlink:href="#DejaVuSans-6c" transform="translate(120.458984 0)"/>
     <use xlink:href="#DejaVuSans-69" transform="translate(148.242188 0)"/>
     <use xlink:href="#DejaVuSans-64" transform="translate(176.025391 0)"/>
     <use xlink:href="#DejaVuSans-61" transform="translate(239.501953 0)"/>
     <use xlink:href="#DejaVuSans-74" transform="translate(300.78125 0)"/>
     <use xlink:href="#DejaVuSans-65" transform="translate(339.990234 0)"/>
    </g>
   </g>
   <g id="text_10">
    <!-- StateStore -->
    <g style="fill: #17202a" transform="translate(110.178094 242.822064) scale(0.1 -0.1)">
     <use xlink:href="#DejaVuSans-Bold-53"/>
     <use xlink:href="#DejaVuSans-Bold-74" transform="translate(72.021484 0)"/>
     <use xlink:href="#DejaVuSans-Bold-61" transform="translate(119.824219 0)"/>
     <use xlink:href="#DejaVuSans-Bold-74" transform="translate(187.304688 0)"/>
     <use xlink:href="#DejaVuSans-Bold-65" transform="translate(235.107422 0)"/>
     <use xlink:href="#DejaVuSans-Bold-53" transform="translate(302.929688 0)"/>
     <use xlink:href="#DejaVuSans-Bold-74" transform="translate(374.951172 0)"/>
     <use xlink:href="#DejaVuSans-Bold-6f" transform="translate(422.753906 0)"/>
     <use xlink:href="#DejaVuSans-Bold-72" transform="translate(491.455078 0)"/>
     <use xlink:href="#DejaVuSans-Bold-65" transform="translate(540.771484 0)"/>
    </g>
   </g>
   <g id="text_11">
    <!-- SQLite state + checkpoints -->
    <g style="fill: #34495e" transform="translate(84.896328 255.799785) scale(0.082 -0.082)">
     <defs>
      <path id="DejaVuSans-53" d="M 3425 4513 
L 3425 3897 
Q 3066 4069 2747 4153 
Q 2428 4238 2131 4238 
Q 1616 4238 1336 4038 
Q 1056 3838 1056 3469 
Q 1056 3159 1242 3001 
Q 1428 2844 1947 2747 
L 2328 2669 
Q 3034 2534 3370 2195 
Q 3706 1856 3706 1288 
Q 3706 609 3251 259 
Q 2797 -91 1919 -91 
Q 1588 -91 1214 -16 
Q 841 59 441 206 
L 441 856 
Q 825 641 1194 531 
Q 1563 422 1919 422 
Q 2459 422 2753 634 
Q 3047 847 3047 1241 
Q 3047 1584 2836 1778 
Q 2625 1972 2144 2069 
L 1759 2144 
Q 1053 2284 737 2584 
Q 422 2884 422 3419 
Q 422 4038 858 4394 
Q 1294 4750 2059 4750 
Q 2388 4750 2728 4690 
Q 3069 4631 3425 4513 
z
" transform="scale(0.015625)"/>
      <path id="DejaVuSans-51" d="M 2522 4238 
Q 1834 4238 1429 3725 
Q 1025 3213 1025 2328 
Q 1025 1447 1429 934 
Q 1834 422 2522 422 
Q 3209 422 3611 934 
Q 4013 1447 4013 2328 
Q 4013 3213 3611 3725 
Q 3209 4238 2522 4238 
z
M 3406 84 
L 4238 -825 
L 3475 -825 
L 2784 -78 
Q 2681 -84 2626 -87 
Q 2572 -91 2522 -91 
Q 1538 -91 948 567 
Q 359 1225 359 2328 
Q 359 3434 948 4092 
Q 1538 4750 2522 4750 
Q 3503 4750 4090 4092 
Q 4678 3434 4678 2328 
Q 4678 1516 4351 937 
Q 4025 359 3406 84 
z
" transform="scale(0.015625)"/>
      <path id="DejaVuSans-2b" d="M 2944 4013 
L 2944 2272 
L 4684 2272 
L 4684 1741 
L 2944 1741 
L 2944 0 
L 2419 0 
L 2419 1741 
L 678 1741 
L 678 2272 
L 2419 2272 
L 2419 4013 
L 2944 4013 
z
" transform="scale(0.015625)"/>
      <path id="DejaVuSans-6b" d="M 581 4863 
L 1159 4863 
L 1159 1991 
L 2875 3500 
L 3609 3500 
L 1753 1863 
L 3688 0 
L 2938 0 
L 1159 1709 
L 1159 0 
L 581 0 
L 581 4863 
z
" transform="scale(0.015625)"/>
     </defs>
     <use xlink:href="#DejaVuSans-53"/>
     <use xlink:href="#DejaVuSans-51" transform="translate(63.476562 0)"/>
     <use xlink:href="#DejaVuSans-4c" transform="translate(142.1875 0)"/>
     <use xlink:href="#DejaVuSans-69" transform="translate(197.900391 0)"/>
     <use xlink:href="#DejaVuSans-74" transform="translate(225.683594 0)"/>
     <use xlink:href="#DejaVuSans-65" transform="translate(264.892578 0)"/>
     <use xlink:href="#DejaVuSans-20" transform="translate(326.416016 0)"/>
     <use xlink:href="#DejaVuSans-73" transform="translate(358.203125 0)"/>
     <use xlink:href="#DejaVuSans-74" transform="translate(410.302734 0)"/>
     <use xlink:href="#DejaVuSans-61" transform="translate(449.511719 0)"/>
     <use xlink:href="#DejaVuSans-74" transform="translate(510.791016 0)"/>
     <use xlink:href="#DejaVuSans-65" transform="translate(550 0)"/>
     <use xlink:href="#DejaVuSans-20" transform="translate(611.523438 0)"/>
     <use xlink:href="#DejaVuSans-2b" transform="translate(643.310547 0)"/>
     <use xlink:href="#DejaVuSans-20" transform="translate(727.099609 0)"/>
     <use xlink:href="#DejaVuSans-63" transform="translate(758.886719 0)"/>
     <use xlink:href="#DejaVuSans-68" transform="translate(813.867188 0)"/>
     <use xlink:href="#DejaVuSans-65" transform="translate(877.246094 0)"/>
     <use xlink:href="#DejaVuSans-63" transform="translate(938.769531 0)"/>
     <use xlink:href="#DejaVuSans-6b" transform="translate(993.75 0)"/>
     <use xlink:href="#DejaVuSans-70" transform="translate(1051.660156 0)"/>
     <use xlink:href="#DejaVuSans-6f" transform="translate(1115.136719 0)"/>
     <use xlink:href="#DejaVuSans-69" transform="translate(1176.318359 0)"/>
     <use xlink:href="#DejaVuSans-6e" transform="translate(1204.101562 0)"/>
     <use xlink:href="#DejaVuSans-74" transform="translate(1267.480469 0)"/>
     <use xlink:href="#DejaVuSans-73" transform="translate(1306.689453 0)"/>
    </g>
    <!-- canonical experiment facts -->
    <g style="fill: #34495e" transform="translate(84.98025 265.293527) scale(0.082 -0.082)">
     <defs>
      <path id="DejaVuSans-78" d="M 3513 3500 
L 2247 1797 
L 3578 0 
L 2900 0 
L 1881 1375 
L 863 0 
L 184 0 
L 1544 1831 
L 300 3500 
L 978 3500 
L 1906 2253 
L 2834 3500 
L 3513 3500 
z
" transform="scale(0.015625)"/>
      <path id="DejaVuSans-66" d="M 2375 4863 
L 2375 4384 
L 1825 4384 
Q 1516 4384 1395 4259 
Q 1275 4134 1275 3809 
L 1275 3500 
L 2222 3500 
L 2222 3053 
L 1275 3053 
L 1275 0 
L 697 0 
L 697 3053 
L 147 3053 
L 147 3500 
L 697 3500 
L 697 3744 
Q 697 4328 969 4595 
Q 1241 4863 1831 4863 
L 2375 4863 
z
" transform="scale(0.015625)"/>
     </defs>
     <use xlink:href="#DejaVuSans-63"/>
     <use xlink:href="#DejaVuSans-61" transform="translate(54.980469 0)"/>
     <use xlink:href="#DejaVuSans-6e" transform="translate(116.259766 0)"/>
     <use xlink:href="#DejaVuSans-6f" transform="translate(179.638672 0)"/>
     <use xlink:href="#DejaVuSans-6e" transform="translate(240.820312 0)"/>
     <use xlink:href="#DejaVuSans-69" transform="translate(304.199219 0)"/>
     <use xlink:href="#DejaVuSans-63" transform="translate(331.982422 0)"/>
     <use xlink:href="#DejaVuSans-61" transform="translate(386.962891 0)"/>
     <use xlink:href="#DejaVuSans-6c" transform="translate(448.242188 0)"/>
     <use xlink:href="#DejaVuSans-20" transform="translate(476.025391 0)"/>
     <use xlink:href="#DejaVuSans-65" transform="translate(507.8125 0)"/>
     <use xlink:href="#DejaVuSans-78" transform="translate(567.585938 0)"/>
     <use xlink:href="#DejaVuSans-70" transform="translate(626.765625 0)"/>
     <use xlink:href="#DejaVuSans-65" transform="translate(690.242188 0)"/>
     <use xlink:href="#DejaVuSans-72" transform="translate(751.765625 0)"/>
     <use xlink:href="#DejaVuSans-69" transform="translate(792.878906 0)"/>
     <use xlink:href="#DejaVuSans-6d" transform="translate(820.662109 0)"/>
     <use xlink:href="#DejaVuSans-65" transform="translate(918.074219 0)"/>
     <use xlink:href="#DejaVuSans-6e" transform="translate(979.597656 0)"/>
     <use xlink:href="#DejaVuSans-74" transform="translate(1042.976562 0)"/>
     <use xlink:href="#DejaVuSans-20" transform="translate(1082.185547 0)"/>
     <use xlink:href="#DejaVuSans-66" transform="translate(1113.972656 0)"/>
     <use xlink:href="#DejaVuSans-61" transform="translate(1149.177734 0)"/>
     <use xlink:href="#DejaVuSans-63" transform="translate(1210.457031 0)"/>
     <use xlink:href="#DejaVuSans-74" transform="translate(1265.4375 0)"/>
     <use xlink:href="#DejaVuSans-73" transform="translate(1304.646484 0)"/>
    </g>
   </g>
   <g id="text_12">
    <!-- EventSink -->
    <g style="fill: #17202a" transform="translate(287.325156 242.822064) scale(0.1 -0.1)">
     <defs>
      <path id="DejaVuSans-Bold-76" d="M 97 3500 
L 1216 3500 
L 2088 1081 
L 2956 3500 
L 4078 3500 
L 2700 0 
L 1472 0 
L 97 3500 
z
" transform="scale(0.015625)"/>
      <path id="DejaVuSans-Bold-6b" d="M 538 4863 
L 1656 4863 
L 1656 2216 
L 2944 3500 
L 4244 3500 
L 2534 1894 
L 4378 0 
L 3022 0 
L 1656 1459 
L 1656 0 
L 538 0 
L 538 4863 
z
" transform="scale(0.015625)"/>
     </defs>
     <use xlink:href="#DejaVuSans-Bold-45"/>
     <use xlink:href="#DejaVuSans-Bold-76" transform="translate(68.310547 0)"/>
     <use xlink:href="#DejaVuSans-Bold-65" transform="translate(133.496094 0)"/>
     <use xlink:href="#DejaVuSans-Bold-6e" transform="translate(201.318359 0)"/>
     <use xlink:href="#DejaVuSans-Bold-74" transform="translate(272.509766 0)"/>
     <use xlink:href="#DejaVuSans-Bold-53" transform="translate(320.3125 0)"/>
     <use xlink:href="#DejaVuSans-Bold-69" transform="translate(392.333984 0)"/>
     <use xlink:href="#DejaVuSans-Bold-6e" transform="translate(426.611328 0)"/>
     <use xlink:href="#DejaVuSans-Bold-6b" transform="translate(497.802734 0)"/>
    </g>
   </g>
   <g id="text_13">
    <!-- JSONL / SQLite -->
    <g style="fill: #34495e" transform="translate(285.777203 255.799785) scale(0.082 -0.082)">
     <defs>
      <path id="DejaVuSans-4a" d="M 628 4666 
L 1259 4666 
L 1259 325 
Q 1259 -519 939 -900 
Q 619 -1281 -91 -1281 
L -331 -1281 
L -331 -750 
L -134 -750 
Q 284 -750 456 -515 
Q 628 -281 628 325 
L 628 4666 
z
" transform="scale(0.015625)"/>
      <path id="DejaVuSans-4f" d="M 2522 4238 
Q 1834 4238 1429 3725 
Q 1025 3213 1025 2328 
Q 1025 1447 1429 934 
Q 1834 422 2522 422 
Q 3209 422 3611 934 
Q 4013 1447 4013 2328 
Q 4013 3213 3611 3725 
Q 3209 4238 2522 4238 
z
M 2522 4750 
Q 3503 4750 4090 4092 
Q 4678 3434 4678 2328 
Q 4678 1225 4090 567 
Q 3503 -91 2522 -91 
Q 1538 -91 948 565 
Q 359 1222 359 2328 
Q 359 3434 948 4092 
Q 1538 4750 2522 4750 
z
" transform="scale(0.015625)"/>
      <path id="DejaVuSans-4e" d="M 628 4666 
L 1478 4666 
L 3547 763 
L 3547 4666 
L 4159 4666 
L 4159 0 
L 3309 0 
L 1241 3903 
L 1241 0 
L 628 0 
L 628 4666 
z
" transform="scale(0.015625)"/>
     </defs>
     <use xlink:href="#DejaVuSans-4a"/>
     <use xlink:href="#DejaVuSans-53" transform="translate(29.492188 0)"/>
     <use xlink:href="#DejaVuSans-4f" transform="translate(92.96875 0)"/>
     <use xlink:href="#DejaVuSans-4e" transform="translate(171.679688 0)"/>
     <use xlink:href="#DejaVuSans-4c" transform="translate(246.484375 0)"/>
     <use xlink:href="#DejaVuSans-20" transform="translate(302.197266 0)"/>
     <use xlink:href="#DejaVuSans-2f" transform="translate(333.984375 0)"/>
     <use xlink:href="#DejaVuSans-20" transform="translate(367.675781 0)"/>
     <use xlink:href="#DejaVuSans-53" transform="translate(399.462891 0)"/>
     <use xlink:href="#DejaVuSans-51" transform="translate(462.939453 0)"/>
     <use xlink:href="#DejaVuSans-4c" transform="translate(541.650391 0)"/>
     <use xlink:href="#DejaVuSans-69" transform="translate(597.363281 0)"/>
     <use xlink:href="#DejaVuSans-74" transform="translate(625.146484 0)"/>
     <use xlink:href="#DejaVuSans-65" transform="translate(664.355469 0)"/>
    </g>
    <!-- append-only events -->
    <g style="fill: #34495e" transform="translate(274.752047 265.293527) scale(0.082 -0.082)">
     <defs>
      <path id="DejaVuSans-2d" d="M 313 2009 
L 1997 2009 
L 1997 1497 
L 313 1497 
L 313 2009 
z
" transform="scale(0.015625)"/>
     </defs>
     <use xlink:href="#DejaVuSans-61"/>
     <use xlink:href="#DejaVuSans-70" transform="translate(61.279297 0)"/>
     <use xlink:href="#DejaVuSans-70" transform="translate(124.755859 0)"/>
     <use xlink:href="#DejaVuSans-65" transform="translate(188.232422 0)"/>
     <use xlink:href="#DejaVuSans-6e" transform="translate(249.755859 0)"/>
     <use xlink:href="#DejaVuSans-64" transform="translate(313.134766 0)"/>
     <use xlink:href="#DejaVuSans-2d" transform="translate(376.611328 0)"/>
     <use xlink:href="#DejaVuSans-6f" transform="translate(414.570312 0)"/>
     <use xlink:href="#DejaVuSans-6e" transform="translate(475.751953 0)"/>
     <use xlink:href="#DejaVuSans-6c" transform="translate(539.130859 0)"/>
     <use xlink:href="#DejaVuSans-79" transform="translate(566.914062 0)"/>
     <use xlink:href="#DejaVuSans-20" transform="translate(626.09375 0)"/>
     <use xlink:href="#DejaVuSans-65" transform="translate(657.880859 0)"/>
     <use xlink:href="#DejaVuSans-76" transform="translate(719.404297 0)"/>
     <use xlink:href="#DejaVuSans-65" transform="translate(778.583984 0)"/>
     <use xlink:href="#DejaVuSans-6e" transform="translate(840.107422 0)"/>
     <use xlink:href="#DejaVuSans-74" transform="translate(903.486328 0)"/>
     <use xlink:href="#DejaVuSans-73" transform="translate(942.695312 0)"/>
    </g>
   </g>
   <g id="text_14">
    <!-- Memory Layer -->
    <g style="fill: #17202a" transform="translate(450.474563 242.743939) scale(0.1 -0.1)">
     <defs>
      <path id="DejaVuSans-Bold-4d" d="M 588 4666 
L 2119 4666 
L 3181 2169 
L 4250 4666 
L 5778 4666 
L 5778 0 
L 4641 0 
L 4641 3413 
L 3566 897 
L 2803 897 
L 1728 3413 
L 1728 0 
L 588 0 
L 588 4666 
z
" transform="scale(0.015625)"/>
      <path id="DejaVuSans-Bold-79" d="M 78 3500 
L 1197 3500 
L 2138 1125 
L 2938 3500 
L 4056 3500 
L 2584 -331 
Q 2363 -916 2067 -1148 
Q 1772 -1381 1288 -1381 
L 641 -1381 
L 641 -647 
L 991 -647 
Q 1275 -647 1404 -556 
Q 1534 -466 1606 -231 
L 1638 -134 
L 78 3500 
z
" transform="scale(0.015625)"/>
     </defs>
     <use xlink:href="#DejaVuSans-Bold-4d"/>
     <use xlink:href="#DejaVuSans-Bold-65" transform="translate(99.511719 0)"/>
     <use xlink:href="#DejaVuSans-Bold-6d" transform="translate(167.333984 0)"/>
     <use xlink:href="#DejaVuSans-Bold-6f" transform="translate(271.533203 0)"/>
     <use xlink:href="#DejaVuSans-Bold-72" transform="translate(340.234375 0)"/>
     <use xlink:href="#DejaVuSans-Bold-79" transform="translate(389.550781 0)"/>
     <use xlink:href="#DejaVuSans-Bold-20" transform="translate(454.736328 0)"/>
     <use xlink:href="#DejaVuSans-Bold-4c" transform="translate(489.550781 0)"/>
     <use xlink:href="#DejaVuSans-Bold-61" transform="translate(553.271484 0)"/>
     <use xlink:href="#DejaVuSans-Bold-79" transform="translate(617.626953 0)"/>
     <use xlink:href="#DejaVuSans-Bold-65" transform="translate(682.8125 0)"/>
     <use xlink:href="#DejaVuSans-Bold-72" transform="translate(750.634766 0)"/>
    </g>
   </g>
   <g id="text_15">
    <!-- embedding + recall -->
    <g style="fill: #34495e" transform="translate(450.082234 255.799785) scale(0.082 -0.082)">
     <use xlink:href="#DejaVuSans-65"/>
     <use xlink:href="#DejaVuSans-6d" transform="translate(61.523438 0)"/>
     <use xlink:href="#DejaVuSans-62" transform="translate(158.935547 0)"/>
     <use xlink:href="#DejaVuSans-65" transform="translate(222.412109 0)"/>
     <use xlink:href="#DejaVuSans-64" transform="translate(283.935547 0)"/>
     <use xlink:href="#DejaVuSans-64" transform="translate(347.412109 0)"/>
     <use xlink:href="#DejaVuSans-69" transform="translate(410.888672 0)"/>
     <use xlink:href="#DejaVuSans-6e" transform="translate(438.671875 0)"/>
     <use xlink:href="#DejaVuSans-67" transform="translate(502.050781 0)"/>
     <use xlink:href="#DejaVuSans-20" transform="translate(565.527344 0)"/>
     <use xlink:href="#DejaVuSans-2b" transform="translate(597.314453 0)"/>
     <use xlink:href="#DejaVuSans-20" transform="translate(681.103516 0)"/>
     <use xlink:href="#DejaVuSans-72" transform="translate(712.890625 0)"/>
     <use xlink:href="#DejaVuSans-65" transform="translate(751.753906 0)"/>
     <use xlink:href="#DejaVuSans-63" transform="translate(813.277344 0)"/>
     <use xlink:href="#DejaVuSans-61" transform="translate(868.257812 0)"/>
     <use xlink:href="#DejaVuSans-6c" transform="translate(929.537109 0)"/>
     <use xlink:href="#DejaVuSans-6c" transform="translate(957.320312 0)"/>
    </g>
    <!-- SQLite + sqlite-vec -->
    <g style="fill: #34495e" transform="translate(451.325047 265.293527) scale(0.082 -0.082)">
     <defs>
      <path id="DejaVuSans-71" d="M 947 1747 
Q 947 1113 1208 752 
Q 1469 391 1925 391 
Q 2381 391 2643 752 
Q 2906 1113 2906 1747 
Q 2906 2381 2643 2742 
Q 2381 3103 1925 3103 
Q 1469 3103 1208 2742 
Q 947 2381 947 1747 
z
M 2906 525 
Q 2725 213 2448 61 
Q 2172 -91 1784 -91 
Q 1150 -91 751 415 
Q 353 922 353 1747 
Q 353 2572 751 3078 
Q 1150 3584 1784 3584 
Q 2172 3584 2448 3432 
Q 2725 3281 2906 2969 
L 2906 3500 
L 3481 3500 
L 3481 -1331 
L 2906 -1331 
L 2906 525 
z
" transform="scale(0.015625)"/>
     </defs>
     <use xlink:href="#DejaVuSans-53"/>
     <use xlink:href="#DejaVuSans-51" transform="translate(63.476562 0)"/>
     <use xlink:href="#DejaVuSans-4c" transform="translate(142.1875 0)"/>
     <use xlink:href="#DejaVuSans-69" transform="translate(197.900391 0)"/>
     <use xlink:href="#DejaVuSans-74" transform="translate(225.683594 0)"/>
     <use xlink:href="#DejaVuSans-65" transform="translate(264.892578 0)"/>
     <use xlink:href="#DejaVuSans-20" transform="translate(326.416016 0)"/>
     <use xlink:href="#DejaVuSans-2b" transform="translate(358.203125 0)"/>
     <use xlink:href="#DejaVuSans-20" transform="translate(441.992188 0)"/>
     <use xlink:href="#DejaVuSans-73" transform="translate(473.779297 0)"/>
     <use xlink:href="#DejaVuSans-71" transform="translate(525.878906 0)"/>
     <use xlink:href="#DejaVuSans-6c" transform="translate(589.355469 0)"/>
     <use xlink:href="#DejaVuSans-69" transform="translate(617.138672 0)"/>
     <use xlink:href="#DejaVuSans-74" transform="translate(644.921875 0)"/>
     <use xlink:href="#DejaVuSans-65" transform="translate(684.130859 0)"/>
     <use xlink:href="#DejaVuSans-2d" transform="translate(745.654297 0)"/>
     <use xlink:href="#DejaVuSans-76" transform="translate(779.113281 0)"/>
     <use xlink:href="#DejaVuSans-65" transform="translate(838.292969 0)"/>
     <use xlink:href="#DejaVuSans-63" transform="translate(899.816406 0)"/>
    </g>
   </g>
   <g id="text_16">
    <!-- Solid arrows: execution flow    Dashed boundary: replaceable domain and provider extensions -->
    <g style="fill: #52606d" transform="translate(48.537 313.483729) scale(0.082 -0.082)">
     <defs>
      <path id="DejaVuSans-77" d="M 269 3500 
L 844 3500 
L 1563 769 
L 2278 3500 
L 2956 3500 
L 3675 769 
L 4391 3500 
L 4966 3500 
L 4050 0 
L 3372 0 
L 2619 2869 
L 1863 0 
L 1184 0 
L 269 3500 
z
" transform="scale(0.015625)"/>
      <path id="DejaVuSans-3a" d="M 750 794 
L 1409 794 
L 1409 0 
L 750 0 
L 750 794 
z
M 750 3309 
L 1409 3309 
L 1409 2516 
L 750 2516 
L 750 3309 
z
" transform="scale(0.015625)"/>
      <path id="DejaVuSans-44" d="M 1259 4147 
L 1259 519 
L 2022 519 
Q 2988 519 3436 956 
Q 3884 1394 3884 2338 
Q 3884 3275 3436 3711 
Q 2988 4147 2022 4147 
L 1259 4147 
z
M 628 4666 
L 1925 4666 
Q 3281 4666 3915 4102 
Q 4550 3538 4550 2338 
Q 4550 1131 3912 565 
Q 3275 0 1925 0 
L 628 0 
L 628 4666 
z
" transform="scale(0.015625)"/>
     </defs>
     <use xlink:href="#DejaVuSans-53"/>
     <use xlink:href="#DejaVuSans-6f" transform="translate(63.476562 0)"/>
     <use xlink:href="#DejaVuSans-6c" transform="translate(124.658203 0)"/>
     <use xlink:href="#DejaVuSans-69" transform="translate(152.441406 0)"/>
     <use xlink:href="#DejaVuSans-64" transform="translate(180.224609 0)"/>
     <use xlink:href="#DejaVuSans-20" transform="translate(243.701172 0)"/>
     <use xlink:href="#DejaVuSans-61" transform="translate(275.488281 0)"/>
     <use xlink:href="#DejaVuSans-72" transform="translate(336.767578 0)"/>
     <use xlink:href="#DejaVuSans-72" transform="translate(376.130859 0)"/>
     <use xlink:href="#DejaVuSans-6f" transform="translate(414.994141 0)"/>
     <use xlink:href="#DejaVuSans-77" transform="translate(476.175781 0)"/>
     <use xlink:href="#DejaVuSans-73" transform="translate(557.962891 0)"/>
     <use xlink:href="#DejaVuSans-3a" transform="translate(610.0625 0)"/>
     <use xlink:href="#DejaVuSans-20" transform="translate(643.753906 0)"/>
     <use xlink:href="#DejaVuSans-65" transform="translate(675.541016 0)"/>
     <use xlink:href="#DejaVuSans-78" transform="translate(735.314453 0)"/>
     <use xlink:href="#DejaVuSans-65" transform="translate(791.369141 0)"/>
     <use xlink:href="#DejaVuSans-63" transform="translate(852.892578 0)"/>
     <use xlink:href="#DejaVuSans-75" transform="translate(907.873047 0)"/>
     <use xlink:href="#DejaVuSans-74" transform="translate(971.251953 0)"/>
     <use xlink:href="#DejaVuSans-69" transform="translate(1010.460938 0)"/>
     <use xlink:href="#DejaVuSans-6f" transform="translate(1038.244141 0)"/>
     <use xlink:href="#DejaVuSans-6e" transform="translate(1099.425781 0)"/>
     <use xlink:href="#DejaVuSans-20" transform="translate(1162.804688 0)"/>
     <use xlink:href="#DejaVuSans-66" transform="translate(1194.591797 0)"/>
     <use xlink:href="#DejaVuSans-6c" transform="translate(1229.796875 0)"/>
     <use xlink:href="#DejaVuSans-6f" transform="translate(1257.580078 0)"/>
     <use xlink:href="#DejaVuSans-77" transform="translate(1318.761719 0)"/>
     <use xlink:href="#DejaVuSans-20" transform="translate(1400.548828 0)"/>
     <use xlink:href="#DejaVuSans-20" transform="translate(1432.335938 0)"/>
     <use xlink:href="#DejaVuSans-20" transform="translate(1464.123047 0)"/>
     <use xlink:href="#DejaVuSans-20" transform="translate(1495.910156 0)"/>
     <use xlink:href="#DejaVuSans-44" transform="translate(1527.697266 0)"/>
     <use xlink:href="#DejaVuSans-61" transform="translate(1604.699219 0)"/>
     <use xlink:href="#DejaVuSans-73" transform="translate(1665.978516 0)"/>
     <use xlink:href="#DejaVuSans-68" transform="translate(1718.078125 0)"/>
     <use xlink:href="#DejaVuSans-65" transform="translate(1781.457031 0)"/>
     <use xlink:href="#DejaVuSans-64" transform="translate(1842.980469 0)"/>
     <use xlink:href="#DejaVuSans-20" transform="translate(1906.457031 0)"/>
     <use xlink:href="#DejaVuSans-62" transform="translate(1938.244141 0)"/>
     <use xlink:href="#DejaVuSans-6f" transform="translate(2001.720703 0)"/>
     <use xlink:href="#DejaVuSans-75" transform="translate(2062.902344 0)"/>
     <use xlink:href="#DejaVuSans-6e" transform="translate(2126.28125 0)"/>
     <use xlink:href="#DejaVuSans-64" transform="translate(2189.660156 0)"/>
     <use xlink:href="#DejaVuSans-61" transform="translate(2253.136719 0)"/>
     <use xlink:href="#DejaVuSans-72" transform="translate(2314.416016 0)"/>
     <use xlink:href="#DejaVuSans-79" transform="translate(2355.529297 0)"/>
     <use xlink:href="#DejaVuSans-3a" transform="translate(2407.458984 0)"/>
     <use xlink:href="#DejaVuSans-20" transform="translate(2441.150391 0)"/>
     <use xlink:href="#DejaVuSans-72" transform="translate(2472.9375 0)"/>
     <use xlink:href="#DejaVuSans-65" transform="translate(2511.800781 0)"/>
     <use xlink:href="#DejaVuSans-70" transform="translate(2573.324219 0)"/>
     <use xlink:href="#DejaVuSans-6c" transform="translate(2636.800781 0)"/>
     <use xlink:href="#DejaVuSans-61" transform="translate(2664.583984 0)"/>
     <use xlink:href="#DejaVuSans-63" transform="translate(2725.863281 0)"/>
     <use xlink:href="#DejaVuSans-65" transform="translate(2780.84375 0)"/>
     <use xlink:href="#DejaVuSans-61" transform="translate(2842.367188 0)"/>
     <use xlink:href="#DejaVuSans-62" transform="translate(2903.646484 0)"/>
     <use xlink:href="#DejaVuSans-6c" transform="translate(2967.123047 0)"/>
     <use xlink:href="#DejaVuSans-65" transform="translate(2994.90625 0)"/>
     <use xlink:href="#DejaVuSans-20" transform="translate(3056.429688 0)"/>
     <use xlink:href="#DejaVuSans-64" transform="translate(3088.216797 0)"/>
     <use xlink:href="#DejaVuSans-6f" transform="translate(3151.693359 0)"/>
     <use xlink:href="#DejaVuSans-6d" transform="translate(3212.875 0)"/>
     <use xlink:href="#DejaVuSans-61" transform="translate(3310.287109 0)"/>
     <use xlink:href="#DejaVuSans-69" transform="translate(3371.566406 0)"/>
     <use xlink:href="#DejaVuSans-6e" transform="translate(3399.349609 0)"/>
     <use xlink:href="#DejaVuSans-20" transform="translate(3462.728516 0)"/>
     <use xlink:href="#DejaVuSans-61" transform="translate(3494.515625 0)"/>
     <use xlink:href="#DejaVuSans-6e" transform="translate(3555.794922 0)"/>
     <use xlink:href="#DejaVuSans-64" transform="translate(3619.173828 0)"/>
     <use xlink:href="#DejaVuSans-20" transform="translate(3682.650391 0)"/>
     <use xlink:href="#DejaVuSans-70" transform="translate(3714.4375 0)"/>
     <use xlink:href="#DejaVuSans-72" transform="translate(3777.914062 0)"/>
     <use xlink:href="#DejaVuSans-6f" transform="translate(3816.777344 0)"/>
     <use xlink:href="#DejaVuSans-76" transform="translate(3877.958984 0)"/>
     <use xlink:href="#DejaVuSans-69" transform="translate(3937.138672 0)"/>
     <use xlink:href="#DejaVuSans-64" transform="translate(3964.921875 0)"/>
     <use xlink:href="#DejaVuSans-65" transform="translate(4028.398438 0)"/>
     <use xlink:href="#DejaVuSans-72" transform="translate(4089.921875 0)"/>
     <use xlink:href="#DejaVuSans-20" transform="translate(4131.035156 0)"/>
     <use xlink:href="#DejaVuSans-65" transform="translate(4162.822266 0)"/>
     <use xlink:href="#DejaVuSans-78" transform="translate(4222.595703 0)"/>
     <use xlink:href="#DejaVuSans-74" transform="translate(4281.775391 0)"/>
     <use xlink:href="#DejaVuSans-65" transform="translate(4320.984375 0)"/>
     <use xlink:href="#DejaVuSans-6e" transform="translate(4382.507812 0)"/>
     <use xlink:href="#DejaVuSans-73" transform="translate(4445.886719 0)"/>
     <use xlink:href="#DejaVuSans-69" transform="translate(4497.986328 0)"/>
     <use xlink:href="#DejaVuSans-6f" transform="translate(4525.769531 0)"/>
     <use xlink:href="#DejaVuSans-6e" transform="translate(4586.951172 0)"/>
     <use xlink:href="#DejaVuSans-73" transform="translate(4650.330078 0)"/>
    </g>
   </g>
   <g id="text_17">
    <!-- Figure 1. Layered execution architecture -->
    <g transform="translate(8.64 18.517969) scale(0.13 -0.13)">
     <defs>
      <path id="DejaVuSans-Bold-46" d="M 588 4666 
L 3834 4666 
L 3834 3756 
L 1791 3756 
L 1791 2888 
L 3713 2888 
L 3713 1978 
L 1791 1978 
L 1791 0 
L 588 0 
L 588 4666 
z
" transform="scale(0.015625)"/>
      <path id="DejaVuSans-Bold-67" d="M 2919 594 
Q 2688 288 2409 144 
Q 2131 0 1766 0 
Q 1125 0 706 504 
Q 288 1009 288 1791 
Q 288 2575 706 3076 
Q 1125 3578 1766 3578 
Q 2131 3578 2409 3434 
Q 2688 3291 2919 2981 
L 2919 3500 
L 4044 3500 
L 4044 353 
Q 4044 -491 3511 -936 
Q 2978 -1381 1966 -1381 
Q 1638 -1381 1331 -1331 
Q 1025 -1281 716 -1178 
L 716 -306 
Q 1009 -475 1290 -558 
Q 1572 -641 1856 -641 
Q 2406 -641 2662 -400 
Q 2919 -159 2919 353 
L 2919 594 
z
M 2181 2772 
Q 1834 2772 1640 2515 
Q 1447 2259 1447 1791 
Q 1447 1309 1634 1061 
Q 1822 813 2181 813 
Q 2531 813 2725 1069 
Q 2919 1325 2919 1791 
Q 2919 2259 2725 2515 
Q 2531 2772 2181 2772 
z
" transform="scale(0.015625)"/>
      <path id="DejaVuSans-Bold-31" d="M 750 831 
L 1813 831 
L 1813 3847 
L 722 3622 
L 722 4441 
L 1806 4666 
L 2950 4666 
L 2950 831 
L 4013 831 
L 4013 0 
L 750 0 
L 750 831 
z
" transform="scale(0.015625)"/>
      <path id="DejaVuSans-Bold-2e" d="M 653 1209 
L 1778 1209 
L 1778 0 
L 653 0 
L 653 1209 
z
" transform="scale(0.015625)"/>
      <path id="DejaVuSans-Bold-78" d="M 1422 1791 
L 159 3500 
L 1344 3500 
L 2059 2463 
L 2784 3500 
L 3969 3500 
L 2706 1797 
L 4031 0 
L 2847 0 
L 2059 1106 
L 1281 0 
L 97 0 
L 1422 1791 
z
" transform="scale(0.015625)"/>
     </defs>
     <use xlink:href="#DejaVuSans-Bold-46"/>
     <use xlink:href="#DejaVuSans-Bold-69" transform="translate(68.310547 0)"/>
     <use xlink:href="#DejaVuSans-Bold-67" transform="translate(102.587891 0)"/>
     <use xlink:href="#DejaVuSans-Bold-75" transform="translate(174.169922 0)"/>
     <use xlink:href="#DejaVuSans-Bold-72" transform="translate(245.361328 0)"/>
     <use xlink:href="#DejaVuSans-Bold-65" transform="translate(294.677734 0)"/>
     <use xlink:href="#DejaVuSans-Bold-20" transform="translate(362.5 0)"/>
     <use xlink:href="#DejaVuSans-Bold-31" transform="translate(397.314453 0)"/>
     <use xlink:href="#DejaVuSans-Bold-2e" transform="translate(466.894531 0)"/>
     <use xlink:href="#DejaVuSans-Bold-20" transform="translate(504.882812 0)"/>
     <use xlink:href="#DejaVuSans-Bold-4c" transform="translate(539.697266 0)"/>
     <use xlink:href="#DejaVuSans-Bold-61" transform="translate(603.417969 0)"/>
     <use xlink:href="#DejaVuSans-Bold-79" transform="translate(667.773438 0)"/>
     <use xlink:href="#DejaVuSans-Bold-65" transform="translate(732.958984 0)"/>
     <use xlink:href="#DejaVuSans-Bold-72" transform="translate(800.78125 0)"/>
     <use xlink:href="#DejaVuSans-Bold-65" transform="translate(850.097656 0)"/>
     <use xlink:href="#DejaVuSans-Bold-64" transform="translate(917.919922 0)"/>
     <use xlink:href="#DejaVuSans-Bold-20" transform="translate(989.501953 0)"/>
     <use xlink:href="#DejaVuSans-Bold-65" transform="translate(1024.316406 0)"/>
     <use xlink:href="#DejaVuSans-Bold-78" transform="translate(1092.138672 0)"/>
     <use xlink:href="#DejaVuSans-Bold-65" transform="translate(1156.640625 0)"/>
     <use xlink:href="#DejaVuSans-Bold-63" transform="translate(1224.462891 0)"/>
     <use xlink:href="#DejaVuSans-Bold-75" transform="translate(1283.740234 0)"/>
     <use xlink:href="#DejaVuSans-Bold-74" transform="translate(1354.931641 0)"/>
     <use xlink:href="#DejaVuSans-Bold-69" transform="translate(1402.734375 0)"/>
     <use xlink:href="#DejaVuSans-Bold-6f" transform="translate(1437.011719 0)"/>
     <use xlink:href="#DejaVuSans-Bold-6e" transform="translate(1505.712891 0)"/>
     <use xlink:href="#DejaVuSans-Bold-20" transform="translate(1576.904297 0)"/>
     <use xlink:href="#DejaVuSans-Bold-61" transform="translate(1611.71875 0)"/>
     <use xlink:href="#DejaVuSans-Bold-72" transform="translate(1679.199219 0)"/>
     <use xlink:href="#DejaVuSans-Bold-63" transform="translate(1728.515625 0)"/>
     <use xlink:href="#DejaVuSans-Bold-68" transform="translate(1787.792969 0)"/>
     <use xlink:href="#DejaVuSans-Bold-69" transform="translate(1858.984375 0)"/>
     <use xlink:href="#DejaVuSans-Bold-74" transform="translate(1893.261719 0)"/>
     <use xlink:href="#DejaVuSans-Bold-65" transform="translate(1941.064453 0)"/>
     <use xlink:href="#DejaVuSans-Bold-63" transform="translate(2008.886719 0)"/>
     <use xlink:href="#DejaVuSans-Bold-74" transform="translate(2068.164062 0)"/>
     <use xlink:href="#DejaVuSans-Bold-75" transform="translate(2115.966797 0)"/>
     <use xlink:href="#DejaVuSans-Bold-72" transform="translate(2187.158203 0)"/>
     <use xlink:href="#DejaVuSans-Bold-65" transform="translate(2236.474609 0)"/>
    </g>
   </g>
  </g>
 </g>
 <defs>
  <clipPath id="pded2b47115">
   <rect x="8.64" y="30.517969" width="613.8" height="321.552"/>
  </clipPath>
 </defs>
</svg>
